<?xml version="1.0"?>
<svg xmlns="http://www.w3.org/2000/svg" height="512px" viewBox="0 -90 512 512" width="512px"><g><path d="m447.011719 155.535156c3.316406-11.125 4.988281-22.679687 4.988281-34.535156 0-66.71875-54.28125-121-121-121-26.523438 0-51.710938 8.425781-72.828125 24.367188-15.609375 11.785156-28.21875 27.367187-36.570313 44.945312-12.925781-5.46875-26.871093-8.3125-41.101562-8.3125-53.640625 0-98.058594 40.234375-104.65625 92.109375-42.921875 6.8125-75.84375 44.078125-75.84375 88.890625 0 49.625 40.375 90 90 90h332c49.625 0 90-40.375 90-90 0-40.777344-27.304688-75.585938-64.988281-86.464844zm0 0" data-original="#000000" class="active-path" data-old_color="#000000" fill="#FFFFFF"/></g> </svg>
