<?xml version="1.0" encoding="iso-8859-1"?>
<!-- Generator: Adobe Illustrator 19.0.0, SVG Export Plug-In . SVG Version: 6.00 Build 0)  -->
<svg version="1.1" id="Capa_1" xmlns="http://www.w3.org/2000/svg" xmlns:xlink="http://www.w3.org/1999/xlink" x="0px" y="0px"
	 viewBox="0 0 512 512" style="enable-background:new 0 0 512 512;" xml:space="preserve">
<circle style="fill:#5D5360;" cx="256" cy="256" r="248.5"/>
<path style="fill:#4B3F4E;" d="M337.497,423.003c-137.243,0-248.5-111.257-248.5-248.5c0-47.74,13.489-92.316,36.824-130.178
	C54.837,88.073,7.5,166.497,7.5,256c0,137.242,111.257,248.5,248.5,248.5c89.503,0,167.928-47.337,211.676-118.322
	C429.814,409.513,385.237,423.003,337.497,423.003z"/>
<circle style="fill:#6F6571;" cx="368.23" cy="336.16" r="32.06"/>
<path style="fill:#FFDC64;" d="M256,7.5c66.408,0,120.242,111.257,120.242,248.5c0,137.242-53.834,248.5-120.242,248.5
	c137.243,0,248.5-111.258,248.5-248.5C504.5,118.757,393.243,7.5,256,7.5z"/>
<circle style="fill:#5D5360;" cx="203.9" cy="380.25" r="20.04"/>
<g>
	<circle style="fill:#6F6571;" cx="304.1" cy="143.77" r="16.03"/>
	<circle style="fill:#6F6571;" cx="155.8" cy="147.78" r="36.07"/>
</g>
<circle style="fill:#5D5360;" cx="95.677" cy="280.05" r="16.03"/>
<path style="fill:#FFC850;" d="M467.676,386.178L467.676,386.178c-35.82,22.077-77.69,35.188-122.523,36.555
	c-22,50.216-53.793,81.767-89.153,81.767C345.503,504.5,423.928,457.163,467.676,386.178z"/>
<path style="fill:#FFF082;" d="M373.921,304.671c-2.137,22.243-5.726,43.393-10.529,63.068c1.589,0.242,3.178,0.487,4.834,0.487
	c17.709,0,32.065-14.356,32.065-32.065C400.29,320.403,388.902,307.366,373.921,304.671z"/>
<path d="M203.895,352.71c-15.186,0-27.541,12.354-27.541,27.54c0,15.186,12.355,27.54,27.541,27.54s27.54-12.354,27.54-27.54
	S219.081,352.71,203.895,352.71z M203.895,392.79c-6.915,0-12.541-5.625-12.541-12.54s5.626-12.54,12.541-12.54
	s12.54,5.625,12.54,12.54S210.81,392.79,203.895,392.79z"/>
<path d="M304.097,120.242c-12.976,0-23.532,10.557-23.532,23.533c0,12.976,10.557,23.532,23.532,23.532
	c12.975,0,23.532-10.557,23.532-23.532C327.629,130.798,317.072,120.242,304.097,120.242z M304.097,152.307
	c-4.705,0-8.532-3.828-8.532-8.532c0-4.705,3.828-8.533,8.532-8.533c4.704,0,8.532,3.828,8.532,8.533
	C312.629,148.479,308.801,152.307,304.097,152.307z"/>
<path d="M95.677,256.517c-12.976,0-23.532,10.557-23.532,23.532s10.557,23.532,23.532,23.532c12.975,0,23.532-10.557,23.532-23.532
	S108.653,256.517,95.677,256.517z M95.677,288.581c-4.705,0-8.532-3.827-8.532-8.532s3.828-8.532,8.532-8.532
	s8.532,3.827,8.532,8.532S100.382,288.581,95.677,288.581z"/>
<path d="M437.02,74.98C388.667,26.629,324.38,0,256,0S123.333,26.629,74.981,74.98C26.629,123.333,0,187.62,0,256
	s26.629,132.668,74.981,181.02S187.62,512,256,512s132.667-26.629,181.02-74.98C485.371,388.668,512,324.38,512,256
	S485.371,123.333,437.02,74.98z M426.413,426.413c-33.364,33.364-74.793,55.724-119.887,65.295
	c15.361-13.038,29.355-32.144,41.249-56.726c8.612-17.797,15.783-37.753,21.401-59.26c0.049,0,0.098,0.004,0.147,0.004
	c10.568,0,20.503-4.115,27.976-11.588c9.968-9.968,13.89-24.627,10.235-38.256c-1.073-4.001-5.185-6.375-9.187-5.302
	c-4,1.073-6.374,5.187-5.301,9.187c2.271,8.469-0.164,17.574-6.354,23.765c-3.801,3.801-8.629,6.2-13.857,6.944
	c7.14-32.428,10.906-67.871,10.906-104.475c0-59.015-10.091-116.514-28.415-161.904c-1.551-3.841-5.92-5.698-9.762-4.147
	c-3.841,1.55-5.698,5.921-4.147,9.762c17.62,43.648,27.324,99.152,27.324,156.289c0,13.767-0.551,27.351-1.619,40.653
	c-9.657,0.516-18.786,4.542-25.776,11.531c-7.473,7.473-11.588,17.408-11.588,27.977s4.116,20.504,11.588,27.976
	c3.804,3.805,8.249,6.733,13.088,8.697c-5.332,20.196-12.084,38.92-20.162,55.615C312.883,472.655,285.085,497,256,497
	c-64.374,0-124.894-25.068-170.413-70.587C40.068,380.894,15,320.374,15,256S40.068,131.106,85.587,85.587S191.626,15,256,15
	c25.778,0,51.169,19.75,71.499,55.612c1.38,2.436,3.918,3.803,6.531,3.803c1.253,0,2.524-0.315,3.692-0.977
	c3.603-2.042,4.869-6.62,2.826-10.223c-10.218-18.025-21.79-32.462-34.235-42.968c45.176,9.546,86.683,31.924,120.101,65.341
	C471.932,131.106,497,191.626,497,256S471.932,380.894,426.413,426.413z M358.038,357.987c-2.216-1.149-4.269-2.641-6.084-4.457
	c-4.64-4.639-7.195-10.808-7.195-17.369s2.555-12.73,7.195-17.369c3.78-3.78,8.568-6.157,13.705-6.922
	C363.87,327.79,361.317,343.225,358.038,357.987z"/>
<path d="M223.936,256.517h-8.532v-8.533c0-4.142-3.358-7.5-7.5-7.5s-7.5,3.358-7.5,7.5v8.533h-8.532c-4.142,0-7.5,3.357-7.5,7.5
	s3.358,7.5,7.5,7.5h8.532v8.532c0,4.143,3.358,7.5,7.5,7.5s7.5-3.357,7.5-7.5v-8.532h8.532c4.142,0,7.5-3.357,7.5-7.5
	S228.078,256.517,223.936,256.517z"/>
<path d="M426.929,223.936l2.713-2.713c2.929-2.929,2.929-7.678,0-10.606c-2.929-2.929-7.678-2.929-10.606,0l-2.713,2.713
	l-2.713-2.713c-2.929-2.929-7.678-2.929-10.606,0c-2.929,2.929-2.929,7.678,0,10.606l2.713,2.713l-2.713,2.713
	c-2.929,2.929-2.929,7.678,0,10.606c1.464,1.464,3.384,2.197,5.303,2.197s3.839-0.732,5.303-2.197l2.713-2.713l2.713,2.713
	c1.464,1.464,3.384,2.197,5.303,2.197s3.839-0.732,5.303-2.197c2.929-2.929,2.929-7.678,0-10.606L426.929,223.936z"/>
<path d="M197.881,136.46c-1.073-4.001-5.185-6.375-9.187-5.301c-4.001,1.073-6.374,5.186-5.301,9.187
	c2.641,9.849-0.19,20.44-7.39,27.64c-11.141,11.141-29.268,11.14-40.408,0c-11.14-11.141-11.14-29.268,0-40.408
	c7.191-7.19,17.77-10.025,27.608-7.398c4.003,1.07,8.112-1.31,9.181-5.311c1.069-4.002-1.309-8.113-5.311-9.181
	c-14.995-4.005-31.12,0.319-42.084,11.284c-16.989,16.989-16.989,44.632,0,61.621c8.494,8.494,19.652,12.742,30.81,12.742
	c11.158,0,22.316-4.248,30.811-12.742C197.587,167.614,201.906,151.47,197.881,136.46z"/>
<g>
</g>
<g>
</g>
<g>
</g>
<g>
</g>
<g>
</g>
<g>
</g>
<g>
</g>
<g>
</g>
<g>
</g>
<g>
</g>
<g>
</g>
<g>
</g>
<g>
</g>
<g>
</g>
<g>
</g>
</svg>
